<?xml version="1.0" encoding="UTF-8" standalone="no"?>
<!-- Created with Inkscape (http://www.inkscape.org/) -->

<svg
   width="4937.5298"
   height="4281.314"
   viewBox="0 0 1341.8921 1163.5497"
   version="1.1"
   id="svg5"
   xml:space="preserve"
   xmlns="http://www.w3.org/2000/svg"
   xmlns:svg="http://www.w3.org/2000/svg"><defs
     id="defs2" /><g
     id="layer4"
     style="display:inline"
     transform="translate(-9.6522799,-100.02206)"><g
       id="g5559"><g
         id="g5581"
         transform="matrix(1.623437,0,0,1.5427254,-470.71925,-356.56974)"><g
           id="g5523"><g
             id="g4206"
             transform="translate(8.7270399,-8.7999813)" /></g><g
           id="g5549"><path
             style="fill:#ffffff;stroke-width:0.271774"
             d="m 947.46954,321.82407 c 0.0479,-0.2723 11.09956,-3.14144 22.83391,3.64436 5.55411,3.21187 10.62532,12.13605 15.93185,17.95361 5.06611,5.55401 18.9315,7.07898 30.3112,4.02438 10.3914,-2.78934 18.5879,-9.96216 18.5879,-9.96216 -2.4431,0.4251 -16.8762,2.6267 -28.2656,-2.16395 -8.33079,-3.50415 -13.45599,-12.30972 -18.93156,-20.51018 -17.46012,-26.14896 -40.4677,7.01394 -40.4677,7.01394 z"
             id="path1210"
             transform="translate(8.72704,-8.7999814)" /><g
             id="g5539"><g
               id="g5532"><path
                 style="fill:#ffffff;stroke-width:0.271774"
                 d="m 825.99959,643.87496 c -2.48373,4.42146 3.0492,-38.69794 -102.58326,-75.57353 -107.67097,-37.58722 -167.10312,-5.62295 -167.10312,-5.62295 0,0 59.77376,-72.41504 232.72443,-166.1608 55.70499,-30.1942 138.69537,-58.47035 138.69537,-58.47035 z"
                 id="path1157"
                 transform="translate(8.72704,-8.7999814)" /><path
                 style="fill:#ffffff;stroke-width:0.271774"
                 d="M 838.31834,646.47494 945.93238,326.29081 1003.8951,698.18203 Z"
                 id="path1208"
                 transform="translate(8.72704,-8.7999814)" /><path
                 style="fill:#ffffff;stroke-width:0.271774"
                 d="M 1080.8135,736.13605 472.07053,545.3677 c -1.86612,0.47093 -1.92343,1.49719 -1.2704,2.74155 l 93.54642,33.62809 c 0,0 0.085,4.39388 2.46064,6.82797 2.37563,2.43412 18.94967,24.59971 22.7298,31.89687 3.78011,7.29713 17.99165,42.68202 34.43057,65.3738 80.2785,81.9066 272.15888,8.69946 410.47144,86.40151 20.1216,-2.99951 26.2555,-23.22854 46.3745,-36.10144 z"
                 id="path1212"
                 transform="translate(8.72704,-8.7999814)" /><path
                 style="opacity:1;fill:#ffffff;fill-opacity:1;stroke:#ffffff;stroke-width:0.272201;stroke-dasharray:none;stroke-opacity:1"
                 d="m 414.31882,591.26707 c 100.46738,202.44754 473.88343,97.74206 617.04058,176.37471 61.4335,36.94477 85.0088,95.16556 90.9678,123.01698 -9.1935,13.13713 -18.473,25.21881 -28.0378,34.53232 C 962.22917,692.52676 413.25888,972.70595 414.31882,591.26707 Z"
                 id="path5516" /></g></g></g><path
           style="opacity:1;fill:#ffffff;fill-opacity:1;stroke:#ffffff;stroke-width:0.272201;stroke-dasharray:none;stroke-opacity:1"
           d="m 419.57369,502.90967 c -81.68556,180.64618 -20.49689,299.32358 172.522,321.71021 185.91543,36.37274 402.25381,-35.57016 493.15201,109.19823 -15.2488,14.25468 -27.3649,26.01118 -37.1494,32.34845 -59.77673,-36.5191 -114.24597,-61.55115 -171.82132,-67.3067 -56.97383,-5.69541 -116.76167,7.59803 -230.62504,26.01355 C 515.67377,945.89523 416.04406,892.87665 380.72955,862.40929 321.27177,784.078 306.1714,714.89225 296.0366,679.10522 305.17234,613.43239 345.05017,538.50391 419.57369,502.90967 Z"
           id="path5561" /><path
           style="opacity:1;fill:#ffffff;fill-opacity:1;stroke:#ffffff;stroke-width:0.265995;stroke-dasharray:none;stroke-opacity:1"
           d="M 1039.7133,971.45134 C 854.51861,856.28015 687.60795,967.59876 535.69969,948.02708 445.477,931.95563 416.9085,908.3525 414.62299,906.29912 c 2.19073,8.17859 149.66538,143.52278 355.66618,143.74888 184.92415,0.203 271.13873,-82.00257 269.42413,-78.59666 z"
           id="path5563" /></g></g></g></svg>
